<?xml version="1.0" encoding="UTF-8" standalone="no"?><!DOCTYPE svg PUBLIC "-//W3C//DTD SVG 1.1//EN" "http://www.w3.org/Graphics/SVG/1.1/DTD/svg11.dtd"><svg width="100%" height="100%" viewBox="0 0 200 200" version="1.1" xmlns="http://www.w3.org/2000/svg" xmlns:xlink="http://www.w3.org/1999/xlink" xml:space="preserve" xmlns:serif="http://www.serif.com/" style="fill-rule:evenodd;clip-rule:evenodd;stroke-linecap:round;stroke-linejoin:round;stroke-miterlimit:1.5;"><path d="M21.682,174.506c-1.544,-6.786 -2.03,-13.581 -0.422,-20.392c1.801,-6.074 1.296,-13.155 -1.901,-21.411l-8.235,-17.843c-3.738,-4.897 -5.444,-13.289 -6.124,-23.45c0.186,-5.302 2.326,-8.321 3.141,-13.007c1.059,-6.098 0.999,-13.662 2.983,-18.855c5.032,-5.824 9.302,-12.56 15.074,-17.958c8.079,-7.557 16.667,-16.637 23.781,-30.727l10.769,-5.863c11.529,0.787 23.005,1.459 34.21,1.529l11.065,3.365c6.165,2.719 14.406,2.644 20.61,3.772c4.638,0.329 8.72,4.856 12.459,11.981l4.223,18.862c3.614,3.597 7.276,9.793 11.731,12.707c13.073,8.551 27.483,18.76 35.225,34.795c3.548,7.178 5.715,18.114 4.282,37.103c-0.655,7.753 -0.567,13.218 -1.097,18.571c-0.365,3.686 0.087,5.073 -0.264,7.817c-0.272,2.137 -2.699,5.32 -2.954,6.97c-1.45,9.382 -1.391,11.527 -2.155,11.524c-12.808,-1.904 -21.053,2.807 -24.284,14.784c-20.242,0.7 -34.523,2.437 -42.023,5.353c-14.302,1.036 -28.727,0.904 -43.289,-0.51c-7.056,-1.555 -18.415,-1.817 -31.465,-2.549c-8.063,-3.71 -16.544,-9.396 -25.34,-16.568Z" style="fill:#3b3b3b;stroke:#000;stroke-width:2px;"/><path d="M144.772,45.886l-15.342,-10.367" style="fill:none;stroke:#000;stroke-width:1px;"/><path d="M176.975,98.139l11.614,-8.602" style="fill:none;stroke:#000;stroke-width:1px;"/><path d="M125.283,61.654l12.747,12.648c10.228,4.533 18.429,12.214 26.552,20.98c3.07,3.312 7.954,1.957 12.129,4.132l5.908,13.233l2.442,14.824l-5.161,15.441l0.029,13.476l-2.69,17.583" style="fill:none;stroke:#000;stroke-width:1px;"/><path d="M132.068,163.65c9.37,-1.475 14.244,-4.538 19.875,-6.877" style="fill:none;stroke:#000;stroke-width:1px;"/><path d="M113.36,195c12.706,-19.308 25.774,-38.124 29.828,-69.141" style="fill:none;stroke:#000;stroke-width:1px;"/><path d="M58.984,190.539c3.094,-4.952 1.631,-3.781 6.133,-18.84c2.83,-9.465 6.137,-18.657 -0.061,-25.767" style="fill:none;stroke:#000;stroke-width:1px;"/><path d="M77.99,49.39c2.102,1.786 17.852,3.692 30.006,6.777c9.036,2.293 16.952,5.681 17.01,4.997l-19.565,34.426" style="fill:none;stroke:#000;stroke-width:1px;"/><path d="M25.989,95.909c8.361,-18.626 29.498,-32.961 52.001,-46.837c-1.111,-2.619 -0.168,-7.327 -1.918,-10.126c-3.415,-5.461 -7.279,-9.681 -8.905,-15.364" style="fill:none;stroke:#000;stroke-width:1px;"/><path d="M11.124,59.548c4.753,14.372 9.627,27.811 15.129,36.361l11.879,89.532" style="fill:none;stroke:#000;stroke-width:1px;"/></svg>