<?xml version="1.0" encoding="UTF-8" standalone="no"?><!DOCTYPE svg PUBLIC "-//W3C//DTD SVG 1.1//EN" "http://www.w3.org/Graphics/SVG/1.1/DTD/svg11.dtd"><svg width="100%" height="100%" viewBox="0 0 200 200" version="1.1" xmlns="http://www.w3.org/2000/svg" xmlns:xlink="http://www.w3.org/1999/xlink" xml:space="preserve" xmlns:serif="http://www.serif.com/" style="fill-rule:evenodd;clip-rule:evenodd;stroke-linecap:round;stroke-linejoin:round;stroke-miterlimit:1.5;"><path d="M61.498,9.354c0,0 -20.644,8.543 -37.454,15.5l-10.567,29.192c10.042,19.113 23.523,44.767 23.523,44.767l58.733,-24.305l-34.235,-65.154Z" style="fill:#fff;stroke:#000;stroke-width:2px;"/><path d="M29.788,42.886l-16.782,10.684l11.664,-28.441l5.118,17.757Z" style="fill:#fff;stroke:#000;stroke-width:1px;"/><path d="M144.24,63.926l-0.313,15.233l0.089,8.636l4.318,2.275c3.574,-7.432 6.773,-11.989 6.64,-25.356c-0.152,-15.321 -4.936,-37.04 -13.308,-42.721l2.574,41.933Z" style="fill:#d7d7d7;stroke:#000;stroke-width:2px;"/><path d="M151.514,83.992l1.958,1.443c2.97,-0.287 4.647,-2.17 4.392,-4.39l-3.651,-5.33l-2.699,8.277Z" style="fill:#d7d7d7;stroke:#000;stroke-width:2px;"/><path d="M154.115,86.113c0,0 4.652,-3.756 3.69,-4.684c0.941,0.209 1.801,-0.071 2.571,-0.886c0.493,1.192 3.104,3.287 6.369,2.272c0.764,-0.237 2.189,0.273 2.983,-0.444c1.218,0.162 1.83,0.244 3.11,0.77c0.817,0.335 2.07,-0.216 2.914,0.184c3.27,1.55 6.327,4.718 10.072,9.473c1.126,2.066 1.51,4.788 1.404,6.724c-0.539,9.874 -7.199,12.328 -12.144,15.691c-3.319,-4.762 -4.778,-5.906 -7.996,-10.484c-2.044,-2.907 -4.437,-5.553 -6.538,-8.473c-2.213,-3.075 -5.334,-6.39 -6.435,-10.143Z" style="fill:#ff2424;stroke:#000;stroke-width:2px;"/><path d="M143.933,87.782c-3.655,4.965 -8.362,7.911 -11.488,9.161c-2.214,7.38 -3.609,13.686 -0.026,23.872c3.374,3.757 8.168,8.754 14.992,3.377c1.635,-0.039 2.449,-3.707 2.6,-11.451l-1.961,-22.797l-4.117,-2.162Z" style="fill:#ff2424;stroke:#000;stroke-width:2px;"/><path d="M143.797,65.031l-25.918,-31.737c-4.993,13.037 5.16,28.278 25.626,47.073" style="fill:#d7d7d7;stroke:#000;stroke-width:2px;"/><path d="M163.225,89.388c3.563,6.368 7.5,12.331 13.24,16.343c2.423,-0.827 4.556,-2.333 5.291,-7.111c-1.316,-1.398 -1.183,-2.589 -2.459,-3.696c-5.32,-4.613 -11.693,-6.689 -16.072,-5.536Z" style="fill:#fff;stroke:#000;stroke-width:2px;"/><path d="M143.172,94.783c1.078,9.584 1.347,18.397 -1.783,23.971c-3.289,-1.137 -4.272,-5.365 -5.264,-10.544c0.374,-6.026 2.433,-10.73 7.047,-13.427Z" style="fill:#fff;stroke:#000;stroke-width:2px;"/><path d="M39.479,180.001c-0.765,-3.159 -1.006,-6.321 -0.209,-9.491c0.892,-2.827 0.643,-6.122 -0.942,-9.965l-4.081,-8.304c-1.853,-2.28 -2.699,-6.186 -3.035,-10.915c0.092,-2.467 1.152,-3.872 1.556,-6.054c0.525,-2.838 0.495,-6.358 1.479,-8.775c2.494,-2.711 4.61,-5.846 7.47,-8.358c4.004,-3.517 8.26,-7.743 11.786,-14.301l5.337,-2.729c5.714,0.367 11.402,0.679 16.955,0.712l5.483,1.566c3.056,1.265 7.14,1.231 10.215,1.756c2.298,0.153 4.322,2.26 6.174,5.576l2.094,8.779c1.79,1.673 3.605,4.557 5.813,5.914c6.479,3.979 13.621,8.731 17.458,16.194c1.758,3.341 2.832,8.43 2.122,17.269c-0.325,3.608 -0.281,6.151 -0.544,8.643c-0.181,1.715 0.043,2.361 -0.13,3.638c-0.136,0.994 -1.338,2.476 -1.464,3.244c-0.719,4.367 -0.69,5.365 -1.069,5.364c-6.347,-0.887 -10.433,1.306 -12.035,6.88c-10.032,0.326 -17.11,1.134 -20.826,2.492c-7.088,0.482 -14.238,0.42 -21.454,-0.238c-3.497,-0.723 -9.127,-0.845 -15.594,-1.186c-3.996,-1.727 -8.2,-4.373 -12.559,-7.711Z" style="fill:#3b3b3b;stroke:#000;stroke-width:2px;"/><path d="M100.482,120.138l-7.603,-4.825" style="fill:none;stroke:#000;stroke-width:1px;"/><path d="M116.442,144.458l5.756,-4.004" style="fill:none;stroke:#000;stroke-width:1px;"/><path d="M90.824,127.477l6.317,5.887c5.069,2.11 9.133,5.685 13.159,9.764c1.522,1.542 3.942,0.911 6.011,1.923l2.929,6.159l1.21,6.9l-2.558,7.187l0.014,6.271l-1.333,8.184" style="fill:none;stroke:#000;stroke-width:1px;"/><path d="M94.186,174.948c4.644,-0.686 7.06,-2.112 9.85,-3.2" style="fill:none;stroke:#000;stroke-width:1px;"/><path d="M84.915,189.539c6.297,-8.986 12.773,-17.743 14.782,-32.179" style="fill:none;stroke:#000;stroke-width:1px;"/><path d="M57.966,187.463c1.533,-2.305 0.809,-1.76 3.04,-8.769c1.402,-4.405 3.041,-8.683 -0.031,-11.992" style="fill:none;stroke:#000;stroke-width:1px;"/><path d="M67.385,121.769c1.042,0.831 8.848,1.718 14.871,3.154c4.479,1.068 8.402,2.644 8.431,2.326l-9.697,16.023" style="fill:none;stroke:#000;stroke-width:1px;"/><path d="M41.614,143.42c4.143,-8.669 14.619,-15.341 25.771,-21.799c-0.55,-1.219 -0.083,-3.41 -0.95,-4.713c-1.693,-2.541 -3.608,-4.505 -4.413,-7.15" style="fill:none;stroke:#000;stroke-width:1px;"/><path d="M34.247,126.497c2.355,6.689 4.771,12.944 7.498,16.923l5.887,41.67" style="fill:none;stroke:#000;stroke-width:1px;"/></svg>