<?xml version="1.0" encoding="UTF-8" standalone="no"?><!DOCTYPE svg PUBLIC "-//W3C//DTD SVG 1.1//EN" "http://www.w3.org/Graphics/SVG/1.1/DTD/svg11.dtd"><svg width="100%" height="100%" viewBox="0 0 200 200" version="1.1" xmlns="http://www.w3.org/2000/svg" xmlns:xlink="http://www.w3.org/1999/xlink" xml:space="preserve" xmlns:serif="http://www.serif.com/" style="fill-rule:evenodd;clip-rule:evenodd;stroke-linecap:round;stroke-linejoin:round;stroke-miterlimit:1.5;"><path d="M65.491,5c0,0 -22.738,9.979 -40.333,17.701l-10.385,28.573c10.435,21.061 25.486,51.44 25.486,51.44l60.491,-26.548l-35.259,-71.166Z" style="fill:#fff;stroke:#000;stroke-width:2px;"/><path d="M29.436,40.277l-14.77,10.751l10.798,-27.923l3.972,17.172Z" style="fill:#fff;stroke:#000;stroke-width:1px;"/><path d="M150.708,64.608l-0.322,16.638l0.092,9.433l4.446,2.486c3.682,-8.119 6.976,-13.096 6.84,-27.697c-0.157,-16.734 -5.084,-40.458 -13.707,-46.663l2.651,45.803Z" style="fill:#d7d7d7;stroke:#000;stroke-width:2px;"/><path d="M158.2,86.526l2.017,1.575c3.058,-0.312 4.786,-2.37 4.523,-4.794l-3.76,-5.823l-2.78,9.042Z" style="fill:#d7d7d7;stroke:#000;stroke-width:2px;"/><path d="M160.879,88.842c0,0 4.791,-4.102 3.8,-5.116c0.97,0.228 1.855,-0.078 2.648,-0.968c0.508,1.303 3.197,3.59 6.56,2.482c0.786,-0.259 2.254,0.298 3.072,-0.485c1.255,0.177 1.885,0.267 3.203,0.84c0.841,0.367 2.132,-0.235 3.001,0.202c3.368,1.693 6.517,5.153 10.373,10.347c1.161,2.257 1.556,5.23 1.447,7.344c-0.556,10.786 -7.415,13.466 -12.508,17.14c-3.418,-5.202 -4.92,-6.451 -8.235,-11.452c-2.105,-3.176 -4.569,-6.066 -6.734,-9.255c-2.279,-3.359 -5.493,-6.98 -6.627,-11.079Z" style="fill:#ff2424;stroke:#000;stroke-width:2px;"/><path d="M150.392,90.665c-3.765,5.424 -8.612,8.641 -11.832,10.007c-2.28,8.061 -3.716,14.948 -0.027,26.074c3.475,4.104 8.413,9.563 15.441,3.689c1.684,-0.042 2.522,-4.049 2.678,-12.507l-2.02,-24.902l-4.24,-2.361Z" style="fill:#ff2424;stroke:#000;stroke-width:2px;"/><path d="M150.252,65.815l-26.693,-34.666c-5.143,14.241 5.314,30.887 26.392,51.417" style="fill:#d7d7d7;stroke:#000;stroke-width:2px;"/><path d="M170.261,92.419c3.67,6.956 7.725,13.469 13.637,17.851c2.495,-0.903 4.692,-2.548 5.449,-7.767c-1.356,-1.526 -1.219,-2.828 -2.533,-4.037c-5.478,-5.038 -12.043,-7.306 -16.553,-6.047Z" style="fill:#fff;stroke:#000;stroke-width:2px;"/><path d="M149.608,98.313c1.11,10.468 1.387,20.094 -1.836,26.182c-3.387,-1.241 -4.4,-5.86 -5.422,-11.516c0.385,-6.583 2.506,-11.721 7.258,-14.666Z" style="fill:#fff;stroke:#000;stroke-width:2px;"/><path d="M49.966,185.708c-0.714,-3.077 -0.938,-6.157 -0.196,-9.245c0.832,-2.754 0.599,-5.965 -0.877,-9.708l-3.804,-8.09c-1.727,-2.22 -2.515,-6.025 -2.829,-10.632c0.086,-2.404 1.074,-3.773 1.451,-5.897c0.489,-2.765 0.461,-6.195 1.378,-8.549c2.324,-2.641 4.296,-5.694 6.962,-8.142c3.732,-3.426 7.699,-7.543 10.985,-13.931l4.974,-2.659c5.326,0.357 10.627,0.662 15.802,0.694l5.111,1.525c2.848,1.233 6.654,1.199 9.52,1.711c2.142,0.149 4.028,2.201 5.755,5.431l1.951,8.553c1.669,1.63 3.36,4.44 5.418,5.761c6.039,3.877 12.695,8.506 16.271,15.776c1.639,3.254 2.639,8.212 1.978,16.822c-0.303,3.515 -0.262,5.993 -0.507,8.42c-0.169,1.671 0.04,2.3 -0.122,3.544c-0.126,0.969 -1.246,2.412 -1.364,3.16c-0.67,4.254 -0.643,5.226 -0.996,5.225c-5.916,-0.863 -9.724,1.273 -11.217,6.703c-9.35,0.317 -15.946,1.105 -19.41,2.427c-6.606,0.469 -13.27,0.41 -19.996,-0.231c-3.259,-0.705 -8.506,-0.824 -14.534,-1.156c-3.724,-1.682 -7.642,-4.26 -11.704,-7.512Z" style="fill:#3b3b3b;stroke:#000;stroke-width:2px;"/><path d="M106.821,127.393l-7.086,-4.7" style="fill:none;stroke:#000;stroke-width:1px;"/><path d="M121.696,151.084l5.365,-3.9" style="fill:none;stroke:#000;stroke-width:1px;"/><path d="M97.819,134.542l5.888,5.734c4.725,2.056 8.513,5.538 12.265,9.512c1.418,1.502 3.674,0.888 5.602,1.874l2.73,6l1.128,6.721l-2.385,7.001l0.014,6.11l-1.243,7.972" style="fill:none;stroke:#000;stroke-width:1px;"/><path d="M100.953,180.786c4.329,-0.669 6.58,-2.057 9.181,-3.118" style="fill:none;stroke:#000;stroke-width:1px;"/><path d="M92.312,195c5.869,-8.754 11.906,-17.285 13.778,-31.348" style="fill:none;stroke:#000;stroke-width:1px;"/><path d="M67.196,192.978c1.429,-2.246 0.753,-1.715 2.832,-8.542c1.307,-4.292 2.835,-8.459 -0.028,-11.683" style="fill:none;stroke:#000;stroke-width:1px;"/><path d="M75.974,128.982c0.972,0.809 8.247,1.673 13.861,3.072c4.173,1.04 7.83,2.576 7.857,2.266l-9.037,15.608" style="fill:none;stroke:#000;stroke-width:1px;"/><path d="M51.955,150.073c3.862,-8.445 13.625,-14.944 24.019,-21.236c-0.513,-1.187 -0.077,-3.322 -0.885,-4.591c-1.578,-2.476 -3.363,-4.389 -4.114,-6.966" style="fill:none;stroke:#000;stroke-width:1px;"/><path d="M45.089,133.587c2.195,6.516 4.446,12.609 6.988,16.486l5.487,40.593" style="fill:none;stroke:#000;stroke-width:1px;"/></svg>