<?xml version="1.0" encoding="UTF-8" standalone="no"?><!DOCTYPE svg PUBLIC "-//W3C//DTD SVG 1.1//EN" "http://www.w3.org/Graphics/SVG/1.1/DTD/svg11.dtd"><svg width="100%" height="100%" viewBox="0 0 200 200" version="1.1" xmlns="http://www.w3.org/2000/svg" xmlns:xlink="http://www.w3.org/1999/xlink" xml:space="preserve" xmlns:serif="http://www.serif.com/" style="fill-rule:evenodd;clip-rule:evenodd;stroke-linecap:round;stroke-linejoin:round;stroke-miterlimit:1.5;"><path d="M89.257,81.215l-0.661,27.166l0.189,15.402l9.124,4.058c7.554,-13.256 14.315,-21.383 14.034,-45.221c-0.321,-27.324 -10.432,-66.058 -28.126,-76.19l5.44,74.785Z" style="fill:#d7d7d7;stroke:#000;stroke-width:2px;"/><path d="M104.631,117.001l4.138,2.573c6.277,-0.511 9.821,-3.87 9.283,-7.829l-7.717,-9.506l-5.704,14.762Z" style="fill:#d7d7d7;stroke:#000;stroke-width:2px;"/><path d="M110.128,120.782c0,0 9.831,-6.697 7.798,-8.351c1.99,0.371 3.807,-0.128 5.434,-1.582c1.043,2.127 6.559,5.863 13.46,4.053c1.614,-0.423 4.627,0.486 6.304,-0.792c2.575,0.288 3.869,0.435 6.573,1.372c1.727,0.598 4.376,-0.384 6.159,0.33c6.911,2.764 13.373,8.413 21.286,16.893c2.381,3.686 3.192,8.54 2.968,11.991c-1.139,17.611 -15.215,21.988 -25.665,27.985c-7.015,-8.494 -10.098,-10.532 -16.9,-18.697c-4.32,-5.186 -9.376,-9.905 -13.817,-15.112c-4.678,-5.484 -11.273,-11.396 -13.6,-18.09Z" style="fill:#ff2424;stroke:#000;stroke-width:2px;"/><path d="M88.609,123.759c-7.726,8.856 -17.674,14.109 -24.28,16.34c-4.68,13.161 -7.627,24.407 -0.056,42.573c7.131,6.699 17.264,15.612 31.685,6.022c3.457,-0.069 5.177,-6.611 5.495,-20.421l-4.143,-40.658l-8.701,-3.856Z" style="fill:#ff2424;stroke:#000;stroke-width:2px;"/><path d="M88.32,83.185l-54.775,-56.6c-10.552,23.251 10.905,50.431 54.158,83.951" style="fill:#d7d7d7;stroke:#000;stroke-width:2px;"/><path d="M129.381,126.624c7.53,11.357 15.85,21.992 27.983,29.146c5.12,-1.475 9.628,-4.161 11.181,-12.681c-2.782,-2.493 -2.501,-4.619 -5.197,-6.592c-11.242,-8.227 -24.712,-11.929 -33.967,-9.873Z" style="fill:#fff;stroke:#000;stroke-width:2px;"/><path d="M86.999,136.246c2.279,17.093 2.847,32.809 -3.768,42.75c-6.95,-2.027 -9.028,-9.569 -11.124,-18.804c0.789,-10.748 5.141,-19.136 14.892,-23.946Z" style="fill:#fff;stroke:#000;stroke-width:2px;"/></svg>